<svg width="1320" height="1320" viewBox="0 0 1320 1320" fill="none" xmlns="http://www.w3.org/2000/svg">
<g filter="url(#filter0_i)">
<circle cx="660" cy="660" r="660" fill="url(#paint0_linear)"/>
</g>
<path d="M476.5 967C464.9 942.6 442.333 906.833 432.5 892L419.5 904C417 910 396.5 919.5 394.5 916C392.9 913.2 378.5 912.833 371.5 913L355.5 892C348.167 890.833 334.1 887.3 336.5 882.5C339.5 876.5 314.5 840.5 308 830.5C302.8 822.5 287.167 818.167 280 817C280.833 811.333 282 800.6 280 803C278 805.4 267.5 817 262.5 822.5H256C248.833 824.667 234.3 825.3 233.5 810.5C232.7 795.7 248.167 763 256 748.5C240.5 750 201.5 719.5 198 673.5C195.2 636.7 218.167 600.833 230 587.5L225 572C221.333 561.833 216.2 540.5 225 536.5C233.8 532.5 243.667 507.167 247.5 495C241.9 470.6 255.833 444.5 263.5 434.5C265.333 423.5 269.9 399.5 273.5 391.5C278 381.5 318.5 336.5 338 334C357.5 331.5 368.5 318.5 369.5 318C370.3 317.6 374.167 300.833 376 292.5C388.4 274.5 406.167 258.333 413.5 252.5C433.1 246.1 462 235.5 474 231C484 215.8 522.833 206.333 541 203.5C559 190 591 168 600.5 179C608.1 187.8 629.333 175.333 639 168C637.5 164.5 635.9 159.6 641.5 168C648.5 178.5 656 179 664 179C672 179 669.5 169.5 679 168C686.6 166.8 693.833 174.833 696.5 179C708.9 178.2 717 182.333 719.5 184.5C732.7 208.1 743.333 209.667 747 207.5C756.2 202.7 763.833 205.5 766.5 207.5L792 226C794.167 230.5 809 243.7 851 260.5C903.5 281.5 920 310 936 327.5C948.8 341.5 959.333 361 963 369C965.4 388.2 973.667 398 977.5 400.5C993.9 414.9 1019 453.5 1029.5 471C1034.3 494.2 1056.83 507.667 1067.5 511.5C1072.5 516.667 1084.6 531.9 1093 551.5C1101.4 571.1 1116.17 588 1122.5 594C1125.3 614 1115.33 629.333 1110 634.5C1112.5 649 1091 656.5 1082.5 667.5C1074 678.5 1088 724 1082.5 744C1078.1 760 1080.67 786 1082.5 797H1069.5C1040.7 815 1075.17 840.833 1096 851.5C1094 860.7 1074.5 857.333 1065 854.5L1069.5 861L1052.5 874C1047.5 871.333 1035.7 867.6 1028.5 874C1021.3 880.4 1015.5 895.333 1013.5 902L1001 906C964.2 922 945.333 920 940.5 917C918 907 920 904 907.5 906C897.5 907.6 889 929 886 939.5C883.667 947.833 876.8 967.9 868 981.5C859.2 995.1 830 1033.83 816.5 1051.5C807.5 1057.5 788.9 1074.4 786.5 1094C783.5 1118.5 779 1115.5 773 1121C767 1126.5 752 1135 740 1138.5C728 1142 735 1144.5 721.5 1154C708 1163.5 648 1150.5 641 1144.5C635.4 1139.7 608.667 1103.17 596 1085.5L529 1027.5C516.333 1017.5 488.1 991.4 476.5 967Z" fill="url(#paint1_linear)"/>
<path d="M269 822.5H262.5M262.5 822.5H256C248.833 824.667 234.3 825.3 233.5 810.5C232.7 795.7 248.167 763 256 748.5C240.5 750 201.5 719.5 198 673.5C195.2 636.7 218.167 600.833 230 587.5L225 572C221.333 561.833 216.2 540.5 225 536.5C233.8 532.5 243.667 507.167 247.5 495C241.9 470.6 255.833 444.5 263.5 434.5C265.333 423.5 269.9 399.5 273.5 391.5C278 381.5 318.5 336.5 338 334C357.5 331.5 368.5 318.5 369.5 318C370.3 317.6 374.167 300.833 376 292.5C388.4 274.5 406.167 258.333 413.5 252.5C433.1 246.1 462 235.5 474 231C484 215.8 522.833 206.333 541 203.5C559 190 591 168 600.5 179C608.1 187.8 629.333 175.333 639 168C637.5 164.5 635.9 159.6 641.5 168C648.5 178.5 656 179 664 179C672 179 669.5 169.5 679 168C686.6 166.8 693.833 174.833 696.5 179C708.9 178.2 717 182.333 719.5 184.5C732.7 208.1 743.333 209.667 747 207.5C756.2 202.7 763.833 205.5 766.5 207.5L792 226C794.167 230.5 809 243.7 851 260.5C903.5 281.5 920 310 936 327.5C948.8 341.5 959.333 361 963 369C965.4 388.2 973.667 398 977.5 400.5C993.9 414.9 1019 453.5 1029.5 471C1034.3 494.2 1056.83 507.667 1067.5 511.5C1072.5 516.667 1084.6 531.9 1093 551.5C1101.4 571.1 1116.17 588 1122.5 594C1125.3 614 1115.33 629.333 1110 634.5C1112.5 649 1091 656.5 1082.5 667.5C1074 678.5 1088 724 1082.5 744C1078.1 760 1080.67 786 1082.5 797H1069.5C1040.7 815 1075.17 840.833 1096 851.5C1094 860.7 1074.5 857.333 1065 854.5L1069.5 861L1052.5 874C1047.5 871.333 1035.7 867.6 1028.5 874C1021.3 880.4 1015.5 895.333 1013.5 902L1001 906C964.2 922 945.333 920 940.5 917C918 907 920 904 907.5 906C897.5 907.6 889 929 886 939.5C883.667 947.833 876.8 967.9 868 981.5C859.2 995.1 830 1033.83 816.5 1051.5C807.5 1057.5 788.9 1074.4 786.5 1094C783.5 1118.5 779 1115.5 773 1121C767 1126.5 752 1135 740 1138.5C728 1142 735 1144.5 721.5 1154C708 1163.5 648 1150.5 641 1144.5C635.4 1139.7 608.667 1103.17 596 1085.5L529 1027.5C516.333 1017.5 488.1 991.4 476.5 967C464.9 942.6 442.333 906.833 432.5 892L419.5 904C417 910 396.5 919.5 394.5 916C392.9 913.2 378.5 912.833 371.5 913L355.5 892C348.167 890.833 334.1 887.3 336.5 882.5C339.5 876.5 314.5 840.5 308 830.5C302.8 822.5 287.167 818.167 280 817C280.833 811.333 282 800.6 280 803C278 805.4 267.5 817 262.5 822.5ZM262.5 618.5C238.167 628.667 195.9 661.5 221.5 711.5C228.167 691.667 245.7 649.5 262.5 639.5V618.5ZM243 681C235.333 690 221 708.7 225 711.5C230 715 255.5 710.5 259 700C262.5 689.5 253 687 248 692L243 681ZM256 661V673.5L251.5 681L248 676.5L256 661ZM230 723L265.5 716.5C265.833 723 265 736.6 259 739C253 741.4 237.167 729.333 230 723ZM259 754.5C249.333 770.833 232.6 806.2 243 817H251.5C249.333 813.333 248.5 799.7 262.5 774.5C265 773 267.8 766.9 259 754.5ZM269 748.5L274 757.5L276.5 739L269 748.5ZM271.5 780C266.333 784.667 256 795.2 256 800C256 804.8 256 811 256 813.5C260.667 815.167 271.3 814.1 276.5 796.5C277.833 794 278.7 787.2 271.5 780Z" stroke="black"/>
<path d="M455.5 595.5C454.3 592.7 461.333 582.667 465 578L460 562C463.6 551.2 486.167 548.5 497 548.5C473 545.7 465.667 540 465 537.5C465 529.5 448.667 503.833 440.5 492C445.5 477 445 466.5 440.5 458C436.9 451.2 444 443.5 448 440.5C461.833 440.333 493.2 439 508 435C522.8 431 545.5 423 555 419.5C552.333 416.167 551.2 408.9 568 406.5C584.8 404.1 614.667 414.167 627.5 419.5C649.5 405.1 661 404.833 664 406.5C680.4 390.1 691.167 385.333 694.5 385L727.5 389.5C732.167 389 747.4 389.1 771 393.5C800.5 399 829.5 424 840 437.5C850.5 451 863 498 862.5 527.5C862.1 551.1 877 591.333 884.5 608.5L876.5 603.5L872 608.5L887.5 618.5C912.5 642 907.5 651.5 919.5 690C929.1 720.8 921.167 763.167 916 780.5C909.667 795.167 896.8 829.8 896 851C895.2 872.2 876.333 911.333 867 928.25C862.2 944.45 846.667 965.167 839.5 973.5C835.5 978.7 834.5 973.667 834.5 970.5C843.5 963 848.5 953.5 847.5 947.5C846.7 942.7 838.5 937.833 834.5 936L820.5 931.5L811 922V928.25L807.5 931.5L800.5 925V931.5L796 925V931.5L787.75 928.25L783 925V931.5L768.5 920.5L770.5 928L758 916.5L763.5 928L753 922L758 928L750.5 922V928V936L741 911.5V922L722.5 905.5L726.5 914L718.5 908L726.5 922L712.5 908L715 916.5L708.5 911.5H703L697.5 905.5C695.667 904.167 694.7 900.8 705.5 898C719 894.5 712.5 898 722.5 898C730.398 898 749.017 884.68 757.67 877.765C756.99 877.682 756.268 877.594 755.5 877.5C731 874.5 722.5 883 712.5 885.5C704.5 887.5 693.5 894.667 689 898L668.5 877.5C667 878.5 662.7 881 657.5 883C652.3 885 636.333 872.833 629 866.5C624.6 875.7 612.5 874.333 607 872.5C585 866.1 596.167 845.167 604.5 835.5C612.9 829.5 613.333 815.333 612.5 809C607.667 813.167 596.7 823.7 591.5 832.5C585 843.5 583 872 587 880.5C591 889 605.5 895 612.5 901.5C619.5 908 617.5 916 594 928C570.5 940 558 932 555 931.5C552 931 536 912.5 483.5 866.5C431 820.5 415 769 409.5 745.5C405.1 726.7 418.333 719.333 425.5 718L433 728V720.5L443 731V725.5L455.5 738.5L458.5 728L465 745.5V735.5L471.5 731V743L479 745.5L475 748.5L483.5 754.5C491.667 764.333 511.8 784.6 527 787C546 790 571.5 768 583 754.5C594.5 741 589 738.5 591.5 735.5C593.5 733.1 604.333 731.5 609.5 731L612.5 738.5C620.1 740.9 625 737.5 626.5 735.5C630.9 736.7 633.667 742.667 634.5 745.5C641.3 748.3 645 737 646 731C650 669 633 664.5 629 658.5C625.8 653.7 610.333 642.5 603 637.5L574.5 625.5V622L547 625.5L552.5 618.5H527L531.5 614L516.5 616L520 609.5L511 614L514.5 609.5H497H493.5L483.5 607V601L475 603.5C451.5 606 457 599 455.5 595.5Z" fill="url(#paint2_linear)"/>
<path d="M792.5 931.5L787.75 928.25M787.75 928.25L783 925V931.5L768.5 920.5L770.5 928L758 916.5L763.5 928L753 922L758 928L750.5 922V928V936L741 911.5V922L722.5 905.5L726.5 914L718.5 908L726.5 922L712.5 908L715 916.5L708.5 911.5H703L697.5 905.5C695.667 904.167 694.7 900.8 705.5 898C719 894.5 712.5 898 722.5 898C730.5 898 749.5 884.333 758 877.5C765.333 878.5 775.1 879.9 755.5 877.5C731 874.5 722.5 883 712.5 885.5C704.5 887.5 693.5 894.667 689 898L668.5 877.5C667 878.5 662.7 881 657.5 883C652.3 885 636.333 872.833 629 866.5C624.6 875.7 612.5 874.333 607 872.5C585 866.1 596.167 845.167 604.5 835.5C612.9 829.5 613.333 815.333 612.5 809C607.667 813.167 596.7 823.7 591.5 832.5C585 843.5 583 872 587 880.5C591 889 605.5 895 612.5 901.5C619.5 908 617.5 916 594 928C570.5 940 558 932 555 931.5C552 931 536 912.5 483.5 866.5C431 820.5 415 769 409.5 745.5C405.1 726.7 418.333 719.333 425.5 718L433 728V720.5L443 731V725.5L455.5 738.5L458.5 728L465 745.5V735.5L471.5 731V743L479 745.5L475 748.5L483.5 754.5C491.667 764.333 511.8 784.6 527 787C546 790 571.5 768 583 754.5C594.5 741 589 738.5 591.5 735.5C593.5 733.1 604.333 731.5 609.5 731L612.5 738.5C620.1 740.9 625 737.5 626.5 735.5C630.9 736.7 633.667 742.667 634.5 745.5C641.3 748.3 645 737 646 731C650 669 633 664.5 629 658.5C625.8 653.7 610.333 642.5 603 637.5L574.5 625.5V622L547 625.5L552.5 618.5H527L531.5 614L516.5 616L520 609.5L511 614L514.5 609.5H497H493.5L483.5 607V601L475 603.5C451.5 606 457 599 455.5 595.5C454.3 592.7 461.333 582.667 465 578L460 562C463.6 551.2 486.167 548.5 497 548.5C473 545.7 465.667 540 465 537.5C465 529.5 448.667 503.833 440.5 492C445.5 477 445 466.5 440.5 458C436.9 451.2 444 443.5 448 440.5C461.833 440.333 493.2 439 508 435C522.8 431 545.5 423 555 419.5C552.333 416.167 551.2 408.9 568 406.5C584.8 404.1 614.667 414.167 627.5 419.5C649.5 405.1 661 404.833 664 406.5C680.4 390.1 691.167 385.333 694.5 385L727.5 389.5C732.167 389 747.4 389.1 771 393.5C800.5 399 829.5 424 840 437.5C850.5 451 863 498 862.5 527.5C862.1 551.1 877 591.333 884.5 608.5L876.5 603.5L872 608.5L887.5 618.5C912.5 642 907.5 651.5 919.5 690C929.1 720.8 921.167 763.167 916 780.5C909.667 795.167 896.8 829.8 896 851C895.2 872.2 876.333 911.333 867 928.25C862.2 944.45 846.667 965.167 839.5 973.5C835.5 978.7 834.5 973.667 834.5 970.5C843.5 963 848.5 953.5 847.5 947.5C846.7 942.7 838.5 937.833 834.5 936L820.5 931.5L811 922V928.25L807.5 931.5L800.5 925V931.5L796 925V931.5L787.75 928.25Z" stroke="black"/>
<path d="M859 605L881 618L900.5 631C900.5 633.167 899.7 638.4 896.5 642C893.3 645.6 887.5 647.5 885 648L869.5 637.5H845C838 638.833 822.4 641.6 816 642C809.6 642.4 795 646.167 788.5 648L772.5 655V659.5H808.5C811 658 818.1 655 826.5 655C834.9 655 866.333 658 881 659.5L873.5 681L869.5 692C867.333 691.5 862.2 689.9 859 687.5C855.8 685.1 839.667 695.5 832 701C840 695 839.667 688.167 838.5 685.5C837.089 697.494 799.799 702.073 774.778 703.216C783.21 703.991 787.359 707.718 788.5 710C789.5 712.333 790.4 719.2 786 728C780.5 739 769.5 737 758.5 733C749.7 729.8 738.5 712 734 703.5V706L725.5 710L717 706L707 708.5L703 701L697 687.5C699 682 704.6 670 711 666C717.4 662 717.667 657 717 655L719.5 645.5L723.5 637.5H728.5C730.833 636.5 737.1 633.8 743.5 631C749.9 628.2 760.833 625.167 765.5 624H772.5V620.5L778 618H769.5L778 614.5H786L791.5 609.5L799.5 607.25L808.5 609.5V607L820 607.25L824 609.5V607L822 602L832 605H836.5L832 597L848 605L845 597L859 605Z" fill="url(#paint3_linear)"/>
<path d="M816 605L820 607.25M820 607.25L824 609.5V607L822 602L832 605H836.5L832 597L848 605L845 597L859 605L881 618L900.5 631C900.5 633.167 899.7 638.4 896.5 642C893.3 645.6 887.5 647.5 885 648L869.5 637.5H845C838 638.833 822.4 641.6 816 642C809.6 642.4 795 646.167 788.5 648L772.5 655V659.5H808.5C811 658 818.1 655 826.5 655C834.9 655 866.333 658 881 659.5L873.5 681L869.5 692C867.333 691.5 862.2 689.9 859 687.5C855.8 685.1 839.667 695.5 832 701C840 695 839.667 688.167 838.5 685.5C836.9 699.1 789.167 703.167 765.5 703.5C780.3 701.5 787 707 788.5 710C789.5 712.333 790.4 719.2 786 728C780.5 739 769.5 737 758.5 733C749.7 729.8 738.5 712 734 703.5V706L725.5 710L717 706L707 708.5L703 701L697 687.5C699 682 704.6 670 711 666C717.4 662 717.667 657 717 655L719.5 645.5L723.5 637.5H728.5C730.833 636.5 737.1 633.8 743.5 631C749.9 628.2 760.833 625.167 765.5 624H772.5V620.5L778 618H769.5L778 614.5H786L791.5 609.5L799.5 607.25L808.5 609.5V607L820 607.25Z" stroke="black"/>
<path d="M801.5 695.5C814.3 693.1 817.5 678.833 817.5 672C834.3 669.2 835.833 675.5 834.5 679C832.667 686.5 822.5 701.1 796.5 699.5C770.5 697.9 766.333 690.833 767.5 687.5V679C765.167 675.167 762.3 670.1 769.5 680.5C778.5 693.5 785.5 698.5 801.5 695.5Z" fill="white" stroke="black"/>
<path d="M568.5 712C574.9 711.2 561.833 702.667 554.5 698.5C540.5 725.5 531.5 716.5 523.5 716.5C517.1 716.5 507.833 702.833 504 696C497.2 705.2 498.833 713.5 500.5 716.5C512.1 730.9 541.333 722.5 554.5 716.5C556.5 715.333 562.1 712.8 568.5 712Z" fill="#E9E9E9" stroke="black"/>
<defs>
<filter id="filter0_i" x="0" y="0" width="1320" height="1324" filterUnits="userSpaceOnUse" color-interpolation-filters="sRGB">
<feFlood flood-opacity="0" result="BackgroundImageFix"/>
<feBlend mode="normal" in="SourceGraphic" in2="BackgroundImageFix" result="shape"/>
<feColorMatrix in="SourceAlpha" type="matrix" values="0 0 0 0 0 0 0 0 0 0 0 0 0 0 0 0 0 0 127 0" result="hardAlpha"/>
<feOffset dy="4"/>
<feGaussianBlur stdDeviation="2"/>
<feComposite in2="hardAlpha" operator="arithmetic" k2="-1" k3="1"/>
<feColorMatrix type="matrix" values="0 0 0 0 0 0 0 0 0 0 0 0 0 0 0 0 0 0 0.25 0"/>
<feBlend mode="normal" in2="shape" result="effect1_innerShadow"/>
</filter>
<linearGradient id="paint0_linear" x1="198" y1="1147" x2="1078" y2="149.5" gradientUnits="userSpaceOnUse">
<stop stop-color="#1158AE"/>
<stop offset="1" stop-color="#056B3B"/>
</linearGradient>
<linearGradient id="paint1_linear" x1="197.766" y1="660.365" x2="1122.99" y2="660.365" gradientUnits="userSpaceOnUse">
<stop stop-color="#152331"/>
<stop offset="1"/>
</linearGradient>
<linearGradient id="paint2_linear" x1="408.624" y1="680.373" x2="924.009" y2="680.373" gradientUnits="userSpaceOnUse">
<stop stop-color="#DCFFBD"/>
<stop offset="1" stop-color="#CC86D1"/>
</linearGradient>
<linearGradient id="paint3_linear" x1="697" y1="666.591" x2="900.5" y2="666.591" gradientUnits="userSpaceOnUse">
<stop stop-color="#152331"/>
<stop offset="1"/>
</linearGradient>
</defs>
</svg>
